<svg width="184" height="36" viewBox="0 0 184 36" fill="none" xmlns="http://www.w3.org/2000/svg">
<path d="M21.084 30.17H10.584L8.988 35H0.336L11.13 5.39H20.622L31.374 35H22.68L21.084 30.17ZM19.026 23.87L15.834 14.294L12.684 23.87H19.026ZM64.8431 11.228C67.8111 11.228 70.1351 12.124 71.8151 13.916C73.5231 15.708 74.3771 18.158 74.3771 21.266V35H66.1451V22.358C66.1451 21.098 65.7951 20.118 65.0951 19.418C64.3951 18.718 63.4431 18.368 62.2391 18.368C61.0351 18.368 60.0831 18.718 59.3831 19.418C58.6831 20.118 58.3331 21.098 58.3331 22.358V35H50.1011V22.358C50.1011 21.098 49.7511 20.118 49.0511 19.418C48.3791 18.718 47.4411 18.368 46.2371 18.368C45.0051 18.368 44.0391 18.718 43.3391 19.418C42.6391 20.118 42.2891 21.098 42.2891 22.358V35H34.0571V11.438H42.2891V14.546C43.0171 13.538 43.9551 12.74 45.1031 12.152C46.2791 11.536 47.6231 11.228 49.1351 11.228C50.8711 11.228 52.4111 11.606 53.7551 12.362C55.1271 13.118 56.2051 14.182 56.9891 15.554C57.8291 14.266 58.9351 13.23 60.3071 12.446C61.6791 11.634 63.1911 11.228 64.8431 11.228ZM83.0452 9.254C81.5892 9.254 80.4132 8.862 79.5172 8.078C78.6492 7.266 78.2152 6.258 78.2152 5.054C78.2152 3.822 78.6492 2.8 79.5172 1.988C80.4132 1.176 81.5892 0.769998 83.0452 0.769998C84.4732 0.769998 85.6212 1.176 86.4892 1.988C87.3852 2.8 87.8332 3.822 87.8332 5.054C87.8332 6.258 87.3852 7.266 86.4892 8.078C85.6212 8.862 84.4732 9.254 83.0452 9.254ZM87.1192 11.438V35H78.8872V11.438H87.1192ZM105.709 27.986V35H102.139C96.1191 35 93.1091 32.018 93.1091 26.054V18.284H90.2111V11.438H93.1091V5.726H101.383V11.438H105.667V18.284H101.383V26.18C101.383 26.824 101.523 27.286 101.803 27.566C102.111 27.846 102.615 27.986 103.315 27.986H105.709ZM131.997 22.946C131.997 23.59 131.955 24.234 131.871 24.878H116.289C116.373 26.166 116.723 27.132 117.339 27.776C117.983 28.392 118.795 28.7 119.775 28.7C121.147 28.7 122.127 28.084 122.715 26.852H131.493C131.129 28.476 130.415 29.932 129.351 31.22C128.315 32.48 126.999 33.474 125.403 34.202C123.807 34.93 122.043 35.294 120.111 35.294C117.787 35.294 115.715 34.804 113.895 33.824C112.103 32.844 110.689 31.444 109.653 29.624C108.645 27.804 108.141 25.662 108.141 23.198C108.141 20.734 108.645 18.606 109.653 16.814C110.661 14.994 112.061 13.594 113.853 12.614C115.673 11.634 117.759 11.144 120.111 11.144C122.435 11.144 124.493 11.62 126.285 12.572C128.077 13.524 129.477 14.896 130.485 16.688C131.493 18.452 131.997 20.538 131.997 22.946ZM123.597 20.888C123.597 19.88 123.261 19.096 122.589 18.536C121.917 17.948 121.077 17.654 120.069 17.654C119.061 17.654 118.235 17.934 117.591 18.494C116.947 19.026 116.527 19.824 116.331 20.888H123.597ZM145.404 35.294C143.276 35.294 141.372 34.944 139.692 34.244C138.04 33.516 136.724 32.536 135.744 31.304C134.792 30.044 134.26 28.63 134.148 27.062H142.128C142.24 27.818 142.59 28.406 143.178 28.826C143.766 29.246 144.494 29.456 145.362 29.456C146.034 29.456 146.566 29.316 146.958 29.036C147.35 28.756 147.546 28.392 147.546 27.944C147.546 27.356 147.224 26.922 146.58 26.642C145.936 26.362 144.872 26.054 143.388 25.718C141.708 25.382 140.308 25.004 139.188 24.584C138.068 24.164 137.088 23.478 136.248 22.526C135.436 21.574 135.03 20.286 135.03 18.662C135.03 17.262 135.408 16.002 136.164 14.882C136.92 13.734 138.026 12.824 139.482 12.152C140.966 11.48 142.744 11.144 144.816 11.144C147.896 11.144 150.318 11.9 152.082 13.412C153.846 14.924 154.868 16.912 155.148 19.376H147.714C147.574 18.62 147.238 18.046 146.706 17.654C146.202 17.234 145.516 17.024 144.648 17.024C143.976 17.024 143.458 17.15 143.094 17.402C142.758 17.654 142.59 18.004 142.59 18.452C142.59 19.012 142.912 19.446 143.556 19.754C144.2 20.034 145.236 20.328 146.664 20.636C148.372 21 149.786 21.406 150.906 21.854C152.054 22.302 153.048 23.03 153.888 24.038C154.756 25.018 155.19 26.362 155.19 28.07C155.19 29.442 154.784 30.674 153.972 31.766C153.188 32.858 152.054 33.726 150.57 34.37C149.114 34.986 147.392 35.294 145.404 35.294ZM174.735 11.228C177.423 11.228 179.551 12.138 181.119 13.958C182.715 15.75 183.513 18.186 183.513 21.266V35H175.281V22.358C175.281 21.014 174.931 19.964 174.231 19.208C173.531 18.424 172.593 18.032 171.417 18.032C170.185 18.032 169.219 18.424 168.519 19.208C167.819 19.964 167.469 21.014 167.469 22.358V35H159.237V3.92H167.469V14.798C168.197 13.734 169.177 12.88 170.409 12.236C171.669 11.564 173.111 11.228 174.735 11.228Z" fill="black"/>
</svg>
