<svg width="218" height="15" viewBox="0 0 218 15" fill="none" xmlns="http://www.w3.org/2000/svg">
<path d="M10.116 14H11.646L6.984 1.4H5.274L0.594 14H2.124L3.186 11.012H9.054L10.116 14ZM3.672 9.68L6.066 2.984H6.174L8.568 9.68H3.672ZM17.5984 14H19.0744L22.7644 4.64H21.1984L18.3904 12.254H18.2824L15.4564 4.64H13.9264L17.5984 14ZM30.5528 14.234C32.5868 14.234 33.5587 12.866 33.7928 12.524H33.9008V14H35.2688V4.64H33.8468V6.152H33.7388C33.4508 5.666 32.4068 4.406 30.4448 4.406C27.7988 4.406 25.8908 6.458 25.8908 9.338C25.8908 12.2 27.7988 14.234 30.5528 14.234ZM30.6428 12.956C28.6808 12.956 27.3488 11.534 27.3488 9.338C27.3488 7.214 28.6808 5.702 30.6068 5.702C32.4608 5.702 33.9008 7.034 33.9008 9.338C33.9008 11.3 32.6768 12.956 30.6428 12.956ZM42.9311 2.948C43.5431 2.948 43.9751 2.498 43.9751 1.904C43.9751 1.328 43.5431 0.877999 42.9311 0.877999C42.3371 0.877999 41.9051 1.328 41.9051 1.904C41.9051 2.498 42.3371 2.948 42.9311 2.948ZM43.6151 12.794V4.64H39.2591V5.846H42.1931V12.794H38.9171V14H46.7291V12.794H43.6151ZM56.3715 12.74C55.9215 12.74 55.6875 12.47 55.6875 12.002V0.499999H50.9175V1.706H54.2655V12.002C54.2655 13.28 54.9495 14 56.1195 14H59.1975V12.74H56.3715ZM67.2559 14.234C69.2899 14.234 70.2619 12.866 70.4959 12.524H70.6039V14H71.9719V4.64H70.5499V6.152H70.4419C70.1539 5.666 69.1099 4.406 67.1479 4.406C64.5019 4.406 62.5939 6.458 62.5939 9.338C62.5939 12.2 64.5019 14.234 67.2559 14.234ZM67.3459 12.956C65.3839 12.956 64.0519 11.534 64.0519 9.338C64.0519 7.214 65.3839 5.702 67.3099 5.702C69.1639 5.702 70.6039 7.034 70.6039 9.338C70.6039 11.3 69.3799 12.956 67.3459 12.956ZM79.5623 14.234C82.3163 14.234 84.2243 12.2 84.2243 9.338C84.2243 6.458 82.3163 4.406 79.6703 4.406C77.7083 4.406 76.6643 5.666 76.3763 6.152H76.2683V0.499999H74.8463V14H76.2143V12.524H76.3223C76.5563 12.866 77.5283 14.234 79.5623 14.234ZM79.4723 12.956C77.4383 12.956 76.2143 11.3 76.2143 9.338C76.2143 7.034 77.6543 5.702 79.5083 5.702C81.4343 5.702 82.7663 7.214 82.7663 9.338C82.7663 11.534 81.4343 12.956 79.4723 12.956ZM93.0746 12.74C92.6246 12.74 92.3906 12.47 92.3906 12.002V0.499999H87.6206V1.706H90.9686V12.002C90.9686 13.28 91.6526 14 92.8226 14H95.9006V12.74H93.0746ZM104.121 14.234C106.317 14.234 107.955 12.992 108.477 11.246H107.001C106.569 12.344 105.381 12.938 104.139 12.938C102.213 12.938 101.007 11.696 100.935 9.824H108.567V9.194C108.567 6.494 106.875 4.406 104.031 4.406C101.475 4.406 99.441 6.332 99.441 9.32C99.441 12.128 101.259 14.234 104.121 14.234ZM100.971 8.564C101.115 6.836 102.465 5.702 104.031 5.702C105.615 5.702 106.929 6.692 107.055 8.564H100.971ZM127.276 14H128.698V5.846H132.694V4.64H128.698V3.542C128.698 2.498 129.202 1.742 130.462 1.742H132.46V0.499999H130.48C128.59 0.499999 127.276 1.634 127.276 3.524V4.64H124.234V5.846H127.276V14ZM140.68 14.234C143.488 14.234 145.576 12.128 145.576 9.32C145.576 6.512 143.524 4.406 140.698 4.406C137.908 4.406 135.802 6.494 135.802 9.32C135.802 12.164 137.872 14.234 140.68 14.234ZM140.68 12.938C138.682 12.938 137.26 11.426 137.26 9.32C137.26 7.268 138.664 5.702 140.68 5.702C142.696 5.702 144.118 7.25 144.118 9.32C144.118 11.408 142.696 12.938 140.68 12.938ZM155.489 6.062H157.055V4.64H155.471C154.103 4.64 153.185 5.594 152.915 6.386H152.807V4.64H149.081V5.846H151.403V12.794H148.829V14H156.875V12.794H152.825V9.176C152.825 7.394 153.779 6.062 155.489 6.062ZM174.017 14H175.907L177.347 6.044H177.455L178.895 14H180.785L182.639 4.64H181.271L179.903 12.38H179.795L178.409 4.64H176.393L175.007 12.38H174.899L173.531 4.64H172.163L174.017 14ZM189.618 14.234C192.426 14.234 194.514 12.128 194.514 9.32C194.514 6.512 192.462 4.406 189.636 4.406C186.846 4.406 184.74 6.494 184.74 9.32C184.74 12.164 186.81 14.234 189.618 14.234ZM189.618 12.938C187.62 12.938 186.198 11.426 186.198 9.32C186.198 7.268 187.602 5.702 189.618 5.702C191.634 5.702 193.056 7.25 193.056 9.32C193.056 11.408 191.634 12.938 189.618 12.938ZM204.426 6.062H205.992V4.64H204.408C203.04 4.64 202.122 5.594 201.852 6.386H201.744V4.64H198.018V5.846H200.34V12.794H197.766V14H205.812V12.794H201.762V9.176C201.762 7.394 202.716 6.062 204.426 6.062ZM217.884 14L214.248 8.276L217.65 4.64H215.85L211.836 9.05H211.728V0.499999H210.306V14H211.728V10.994L213.294 9.32L216.264 14H217.884Z" fill="black"/>
</svg>
